<svg width="72" height="66" viewBox="0 0 72 66" fill="none" xmlns="http://www.w3.org/2000/svg">
<path d="M6.59556 16.2222H49.3733L46.4489 13.1111H9.11555L6.59556 16.2222ZM54.5689 16.9378C55.4711 17.9956 56 19.3333 56 20.8889V59.7778C56 61.428 55.3444 63.0107 54.1776 64.1776C53.0107 65.3444 51.428 66 49.7778 66H6.22222C4.57199 66 2.98934 65.3444 1.82245 64.1776C0.655553 63.0107 0 61.428 0 59.7778V20.8889C0 19.3333 0.528889 17.9956 1.43111 16.9378L5.72444 11.7111C6.59556 10.6533 7.87111 10 9.33333 10H46.6667C48.1289 10 49.4044 10.6533 50.2444 11.7111L54.5689 16.9378ZM9.33333 56.6667H28V47.3333H9.33333V56.6667Z" fill="#FFC702"/>
<circle cx="59" cy="13" r="13" fill="#F7B101"/>
<path d="M66 14H60V20H58V14H52V12H58V6H60V12H66V14Z" fill="white"/>
</svg>
