<svg width="36" height="37" viewBox="0 0 36 37" fill="none" xmlns="http://www.w3.org/2000/svg">
<path d="M23.8352 17.2978C28.2491 17.2978 31.7803 20.7574 31.7803 25.0818C31.7803 25.4146 31.7592 25.7432 31.7181 26.0661C31.4683 28.0292 31.5741 30.2312 32.9831 31.6207L34.7488 33.3618C35.4363 34.0398 35.4345 35.1496 34.7448 35.8253C34.0772 36.4794 33.0103 36.4837 32.3374 35.835L30.4764 34.041C29.0396 32.6559 26.8429 32.5487 24.8631 32.8008C24.5261 32.8437 24.1829 32.8658 23.8352 32.8658C19.4213 32.8658 15.8901 29.4063 15.8901 25.0818C15.8901 20.7574 19.4213 17.2978 23.8352 17.2978ZM23.8352 20.7574C22.6646 20.7574 21.5419 21.213 20.7141 22.024C19.8863 22.835 19.4213 23.9349 19.4213 25.0818C19.4213 26.2287 19.8863 27.3287 20.7141 28.1397C21.5419 28.9507 22.6646 29.4063 23.8352 29.4063C25.0059 29.4063 26.1286 28.9507 26.9563 28.1397C27.7841 27.3287 28.2491 26.2287 28.2491 25.0818C28.2491 23.9349 27.7841 22.835 26.9563 22.024C26.1286 21.213 25.0059 20.7574 23.8352 20.7574ZM21.1869 9.67563C21.1869 8.14005 20.2124 6.77367 18.7606 6.27346L17.6155 5.87894C14.1762 4.69396 10.5934 7.24902 10.5934 10.8868V23.0934C10.5934 23.6517 10.9481 24.1483 11.4762 24.3294L11.9336 24.4862C12.1881 24.5735 12.359 24.8128 12.359 25.0818C12.359 25.5013 12.3818 25.9158 12.4265 26.3234C12.5169 27.1485 11.7271 27.8914 10.9418 27.6227C10.7167 27.5457 10.4717 27.5497 10.2492 27.6342L1.29938 31.0332C1.21016 31.0671 1.11805 31.0928 1.02419 31.1101C0.930114 31.1274 0.834051 31.1398 0.73962 31.1246C0.55857 31.0954 0.389982 31.0115 0.258562 30.8827C0.0930077 30.7205 0 30.5005 0 30.2712V4.11688C0 3.71903 0.264836 3.40767 0.635606 3.28658L7.39831 1.05455C9.47129 0.370362 11.7112 0.383294 13.7762 1.09137L17.7441 2.45201C19.9679 3.21456 22.3893 3.16925 24.583 2.32404L30.3514 0.101562C30.5256 0.0344296 30.7108 0 30.8975 0C31.1316 0 31.3562 0.0911223 31.5217 0.253321C31.6873 0.415519 31.7803 0.635507 31.7803 0.86489V8.223C31.7803 11.5396 27.1518 13.8382 23.8352 13.8382C22.4618 13.8382 21.1869 12.836 21.1869 11.4626V9.67563Z" fill="#FFC702"/>
</svg>
