<svg width="69" height="63" viewBox="0 0 69 63" fill="none" xmlns="http://www.w3.org/2000/svg">
<path d="M6.59556 13.2222H49.3733L46.4489 10.1111H9.11555L6.59556 13.2222ZM54.5689 13.9378C55.4711 14.9956 56 16.3333 56 17.8889V56.7778C56 58.428 55.3444 60.0107 54.1776 61.1776C53.0107 62.3444 51.428 63 49.7778 63H6.22222C4.57199 63 2.98934 62.3444 1.82245 61.1776C0.655553 60.0107 0 58.428 0 56.7778V17.8889C0 16.3333 0.528889 14.9956 1.43111 13.9378L5.72444 8.71111C6.59556 7.65333 7.87111 7 9.33333 7H46.6667C48.1289 7 49.4044 7.65333 50.2444 8.71111L54.5689 13.9378ZM9.33333 53.6667H28V44.3333H9.33333V53.6667Z" fill="#FFC702"/>
<circle cx="56" cy="13" r="13" fill="#4360F9"/>
<path d="M53.21 20.54L47 14.33L49.83 11.5L53.21 14.89L63.09 5L65.92 7.83L53.21 20.54Z" fill="white"/>
</svg>
