<svg width="69" height="63" viewBox="0 0 69 63" fill="none" xmlns="http://www.w3.org/2000/svg">
<path d="M6.59556 13.2222H49.3733L46.4489 10.1111H9.11555L6.59556 13.2222ZM54.5689 13.9378C55.4711 14.9956 56 16.3333 56 17.8889V56.7778C56 58.428 55.3444 60.0107 54.1776 61.1776C53.0107 62.3444 51.428 63 49.7778 63H6.22222C4.57199 63 2.98934 62.3444 1.82245 61.1776C0.655553 60.0107 0 58.428 0 56.7778V17.8889C0 16.3333 0.528889 14.9956 1.43111 13.9378L5.72444 8.71111C6.59556 7.65333 7.87111 7 9.33333 7H46.6667C48.1289 7 49.4044 7.65333 50.2444 8.71111L54.5689 13.9378ZM9.33333 53.6667H28V44.3333H9.33333V53.6667Z" fill="#FFC702"/>
<circle cx="56" cy="13" r="13" fill="#4360F9"/>
<path d="M56 21C53.8783 21 51.8434 20.1571 50.3431 18.6569C48.8429 17.1566 48 15.1217 48 13C48 10.8783 48.8429 8.84344 50.3431 7.34315C51.8434 5.84285 53.8783 5 56 5C58.1217 5 60.1566 5.84285 61.6569 7.34315C63.1571 8.84344 64 10.8783 64 13C64 15.1217 63.1571 17.1566 61.6569 18.6569C60.1566 20.1571 58.1217 21 56 21ZM56 3C54.6868 3 53.3864 3.25866 52.1732 3.7612C50.9599 4.26375 49.8575 5.00035 48.9289 5.92893C47.0536 7.8043 46 10.3478 46 13C46 15.6522 47.0536 18.1957 48.9289 20.0711C49.8575 20.9997 50.9599 21.7362 52.1732 22.2388C53.3864 22.7413 54.6868 23 56 23C58.6522 23 61.1957 21.9464 63.0711 20.0711C64.9464 18.1957 66 15.6522 66 13C66 11.6868 65.7413 10.3864 65.2388 9.17317C64.7362 7.95991 63.9997 6.85752 63.0711 5.92893C62.1425 5.00035 61.0401 4.26375 59.8268 3.7612C58.6136 3.25866 57.3132 3 56 3ZM60.24 8.76C59.07 7.58 57.53 7 56 7V13L51.76 17.24C54.1 19.58 57.9 19.58 60.24 17.24C62.59 14.9 62.59 11.1 60.24 8.76Z" fill="white"/>
</svg>
