<svg width="34" height="37" viewBox="0 0 34 37" fill="none" xmlns="http://www.w3.org/2000/svg">
<path d="M17.8411 33.0913C15.98 33.7946 13.9221 32.7952 13.2421 30.8889C12.5263 28.9642 13.5105 26.8358 15.3716 26.151C17.2326 25.4477 19.2905 26.4286 19.9705 28.3349C20.6505 30.2597 19.6842 32.388 17.8411 33.0913ZM14.1368 22.6716C10.4326 24.0597 8.51789 28.3164 9.8421 32.1659C11.2379 35.997 15.3537 37.9403 19.0758 36.5522C22.78 35.1641 24.6768 30.9074 23.3347 27.0764C21.9747 23.2268 17.8411 21.2836 14.1368 22.6716ZM26.2065 8.31948C25.5145 6.37469 23.3585 5.37941 21.4295 6.11427L16.5515 7.97254C14.6827 8.68449 13.7257 10.7597 14.3977 12.6433C15.0896 14.5826 17.2392 15.5756 19.1643 14.8453L24.0448 12.9937C25.9172 12.2834 26.8778 10.2062 26.2065 8.31948ZM33.4071 23.2898C33.0651 22.3119 31.9844 21.8081 31.0156 22.1749L25.9632 24.088C25.0519 24.433 24.6668 25.5126 24.9989 26.4286C25.3239 27.325 26.2877 27.9053 27.1794 27.5676L32.3204 25.621C33.2549 25.2672 33.737 24.233 33.4071 23.2898ZM32.6486 15.732C31.9565 13.7817 29.7963 12.7816 27.8614 13.5157L17.7272 17.3609C16.9161 17.6687 16.5011 18.5694 16.7942 19.3858C17.0064 19.9772 17.5498 20.3754 18.1665 20.4953C18.9172 20.6413 19.6444 20.8844 20.3336 21.2173C22.1936 22.1154 24.3242 22.75 26.2556 22.0179L30.4787 20.4172C32.3559 19.7056 33.32 17.624 32.6486 15.732ZM0 0V0.461794C0 2.25103 1.45046 3.70149 3.2397 3.70149C4.61212 3.70149 5.83563 4.56625 6.29365 5.85999L11.3144 20.0416C11.6208 20.907 12.6726 21.2639 13.5284 20.9319C14.4025 20.5929 14.9777 19.6561 14.6662 18.7718L8.05263 0" fill="#FFC702"/>
</svg>
