<svg width="34" height="34" viewBox="0 0 34 34" fill="none" xmlns="http://www.w3.org/2000/svg">
<path d="M4.00444 3.77778H29.9767L28.2011 1.88889H5.53444L4.00444 3.77778ZM33.1311 4.21222C33.6789 4.85444 34 5.66667 34 6.61111V30.2222C34 31.2241 33.602 32.185 32.8935 32.8935C32.185 33.602 31.2241 34 30.2222 34H3.77778C2.77585 34 1.81496 33.602 1.10649 32.8935C0.398015 32.185 0 31.2241 0 30.2222V6.61111C0 5.66667 0.321111 4.85444 0.868889 4.21222L3.47556 1.03889C4.00444 0.396667 4.77889 0 5.66667 0H28.3333C29.2211 0 29.9956 0.396667 30.5056 1.03889L33.1311 4.21222ZM5.66667 28.3333H17V22.6667H5.66667V28.3333Z" fill="#FFC702"/>
</svg>
